<?xml version="1.0" encoding="UTF-8"?>
<svg version="1.1" xmlns="http://www.w3.org/2000/svg" width="16" height="16">
<path d="M0 0 C5.28 0 10.56 0 16 0 C16 5.28 16 10.56 16 16 C10.72 16 5.44 16 0 16 C0 10.72 0 5.44 0 0 Z " fill="#848484" transform="translate(0,0)"/>
<path d="M0 0 C5.28 0 10.56 0 16 0 C16 5.28 16 10.56 16 16 C10.72 16 5.44 16 0 16 C0 10.72 0 5.44 0 0 Z M2 2 C2 5.63 2 9.26 2 13 C4.28705831 14.14352916 5.59264762 14.10334439 8.125 14.0625 C9.40375 14.041875 10.6825 14.02125 12 14 C12 13.34 12 12.68 12 12 C12.99 12 13.98 12 15 12 C15.02689216 10.52093108 15.04634621 9.04172517 15.0625 7.5625 C15.07410156 6.73878906 15.08570313 5.91507812 15.09765625 5.06640625 C15.23267348 3.00836062 15.23267348 3.00836062 14 2 C11.98035801 1.92755947 9.95832876 1.91622812 7.9375 1.9375 C6.83277344 1.94652344 5.72804688 1.95554688 4.58984375 1.96484375 C3.73519531 1.97644531 2.88054687 1.98804687 2 2 Z " fill="#E9E9E9" transform="translate(0,0)"/>
<path d="M0 0 C3.3 0 6.6 0 10 0 C10 2.31 10 4.62 10 7 C6.7 7 3.4 7 0 7 C0 4.69 0 2.38 0 0 Z " fill="#E9E9E9" transform="translate(3,4)"/>
<path d="M0 0 C5.28 0 10.56 0 16 0 C16 3.96 16 7.92 16 12 C15.67 12 15.34 12 15 12 C14.67 9.03 14.34 6.06 14 3 C10.04 3 6.08 3 2 3 C1.67 5.97 1.34 8.94 1 12 C0.67 12 0.34 12 0 12 C0 8.04 0 4.08 0 0 Z " fill="#F7F7F7" transform="translate(0,0)"/>
<path d="M0 0 C3.3 0.33 6.6 0.66 10 1 C10 1.66 10 2.32 10 3 C6.7 3 3.4 3 0 3 C0 2.01 0 1.02 0 0 Z " fill="#F3F3F3" transform="translate(3,8)"/>
<path d="M0 0 C1.32 0.33 2.64 0.66 4 1 C3.67 1.99 3.34 2.98 3 4 C1.125 4.875 1.125 4.875 -1 5 C-2.75 3.5625 -2.75 3.5625 -4 2 C-3.01 2 -2.02 2 -1 2 C-0.67 2.33 -0.34 2.66 0 3 C0 2.01 0 1.02 0 0 Z " fill="#848484" transform="translate(8,5)"/>
</svg>
